<?xml version="1.0" encoding="utf-8"?>
<!-- Generator: Adobe Illustrator 27.5.0, SVG Export Plug-In . SVG Version: 6.00 Build 0)  -->
<svg version="1.1" xmlns="http://www.w3.org/2000/svg" xmlns:xlink="http://www.w3.org/1999/xlink" x="0px" y="0px"
	 viewBox="0 0 779.8 159.8" style="enable-background:new 0 0 779.8 159.8;" xml:space="preserve">
<style type="text/css">
	.st0{fill:url(#SVGID_1_);}
	.st1{fill:#FFFFFF;}
</style>
<g id="Layer_1">
	<linearGradient id="SVGID_1_" gradientUnits="userSpaceOnUse" x1="387.1672" y1="16.1727" x2="387.5965" y2="148.2648">
		<stop  offset="0" style="stop-color:#FF1DFF"/>
		<stop  offset="1" style="stop-color:#FEF87D"/>
	</linearGradient>
	<path class="st0" d="M763.4,31.3c-5.4-5.8-13.2-9-21.8-9c-1.7,0-3.3,0-4.7,0c-4.3,0-8.4-0.1-14,0.3c-8.3,0.6-16.2,4-22.5,9.2
		c-5.2-5.8-12.7-9.2-20.5-9.2c-6.6,0-13,2.3-18,6.6l-2.8,2.5c-5.2-5.8-12.7-9.1-20.6-9.1c-10.6,0-19.9,5.3-25.5,13.5
		c-7.4-8.7-17.5-13.5-28.6-13.5c-11.1,0-22,4.5-30.7,11.6c-4.8-7-12.7-11.6-21.9-11.7l-0.2,0c-9.4,0-11.2,0-20.5,0.2
		c-10.9-0.4-21.2,3.1-29.1,9.7c-7.4,6.3-12.2,15-13.5,24.5c-2.5,16-4.5,28.8-6.5,42.6l3.2-23c1.9-13.7-2.1-27.4-11.2-37.8
		c-9-10.4-22.1-16.3-35.8-16.3h-4.8c-7.3,0-14.6,2.4-20.5,6.6c-4.3-3.7-9.9-6-16.2-6.2c-5.1-0.2-28.3-0.5-35.4,0
		c-12.6,0.8-22,10.6-23.5,24.5c-0.1,0.4-0.2,0.9-0.2,1.4c-0.4,2.2-0.9,4.9-0.7,8c0.4,7,4.2,12.7,10.3,15.4l1,0.4l0.5,0.1
		c-0.9,5.9-1.9,13.2-3,20.9c-1.5,10.7-4.2,29.6-4.3,29.9c-2.6,13.8-21.1,11.6-21.1,11.6c1.7-2.7,2.8-5.8,3.3-9.2l0-0.2
		c0.3-2.5,1.9-14,3.8-27.2c2.3-16.2,4.9-34.5,6.3-44.8c1.7-12.4-4.6-24-15.9-28.9c-6.7-2.9-14.2-3-20.8-0.3
		c-4.2-7.7-11.8-12.9-21-13.8c-12.6-1.3-23.1,5.7-27.6,17.6c-5.8-4-12.7-6.2-19.9-6.2h-20.8c-10.2,0-19.5,4.7-25.6,12.1
		c-8.6-7.5-19.6-11.7-31.2-11.7h-4.8c-8.3,0-16.6,3.1-22.9,8.5l-0.2,0.2c-0.9,0.8-1.8,1.7-2.6,2.6c-0.9-0.8-1.9-1.6-2.9-2.4
		l-0.1-0.1c-5.7-4-12.5-6.2-19.4-6.2H60c-18.6,0-34.1,13.4-36.7,31.8l-8.1,57.1c-0.3,2-1.2,3.6-1.6,5.3c-2.6,11.8-9.3,20.3-9.3,20.3
		h66.5c8.5,0,16.7-3.1,23-8.7c2.6-2.3,4.9-4.9,6.6-7.8c8.9,8.9,21,14,33.6,14c0,0,4.8-0.2,4.8,0.4c0,6.8-3.9,9.3-3.9,9.3h39.1
		c8.2,0,15.5-3.9,20-10.1l4-0.1c0,0,48.5,0.2,49.1,0.2c1.5,4.7,5.6,10.1,13.5,10.5h0c0.2,0,0.3,0,0.5,0l1.9,0c1.6,0,3.3,0.1,4.1,0.1
		c0.9,0,3.1,0,5.1,0.1c2.1,0,4.1,0.1,4.9,0.1h0.4l0.4,0c1.6-0.1,3.2-0.3,4.8-0.7l50.1,0.6c0.3,0,5.1,0.1,10.1,0.1
		c2.6,0,5.3,0,7.4-0.1l0.1,0c19.2-0.6,22.9-15.2,23.5-21.8c0.7-5.7,1.8-12.5,2.9-19.3c2,5.2,4.8,10.2,8.6,14.5
		c9,10.4,22.1,16.3,35.8,16.3h4.8c8.4,0,16.6-3.1,23-8.7c5.6-4.9,9.9-11.4,11.5-18.9c-0.3,2-1,3.9-1.3,6.1l-0.1,0.7
		c-0.1,0.8-0.1,1.1-0.1,1.1c0,0-2.7,11,0.6,14.8c4,4.7,11.3,4.8,11.3,4.8h3.7c0,0,17.4-0.1,17.7-0.1c4.4-0.3-0.2,8-3.9,9.6
		c-0.1,0-0.1,0.2,0,0.2l32,0.2c1.7,0,7.4-0.4,9.7-1.5c0,0,4.2-0.3,12.2-8.2c0.6-0.6,3.3,0,3.3,0c8,0,21.2-0.1,21.2-0.1l12.5-0.1l0,0
		l11.1-0.1c0,0-2.4,8.5-8.4,10.5c-0.1,0,42.4,0,42.4,0c8.4,0,16.1-3.9,21.1-10.1h25.8c1.5,0,3-0.1,4.4-0.4h42.8c2.2,0,4.1,0,5.9,0
		c1.6,0,3.2,0,4.9,0c1.8,0,3.7,0,5.9-0.1c6.8,0,13.3-2.7,18.3-7.4l0.3-0.3c4.9-4.9,7.7-11.3,8-18.1l0-0.3c0.1-7.9-2.6-15-7.7-20.2
		c-0.1-0.1-0.3-0.3-0.4-0.4c1.8-3.2,2.8-6.8,2.9-10.6c0-2.4-0.3-4.7-1-6.9c2.4-1.2,4.7-2.8,6.6-4.7c4.8-4.8,7.5-11,7.9-17.6
		C770.8,43.4,768.4,36.6,763.4,31.3z M520.4,88C520.4,88,520.4,88,520.4,88L520.4,88C520.4,88,520.4,88,520.4,88z M592.3,91.6
		l-0.1,0.7c-0.1-0.1-0.1-0.2-0.2-0.4C592.1,91.8,592.2,91.7,592.3,91.6z"/>
</g>
<g id="Layer_2">
	<path class="st1" d="M126.1,36.7h4.8c20.1,0,35.6,17.8,32.8,37.8l-4.3,30.6c-0.7,4.9-3.1,9.3-6.8,12.5c-3.8,3.3-8.6,5.2-13.6,5.2
		h-4.8c-20.1,0-35.6-17.8-32.8-37.7l4.3-30.7c0.7-4.9,3.2-9.3,6.9-12.7C116.3,38.5,121.2,36.7,126.1,36.7z M140.2,73.7
		c0.1-2.5-2.2-5.3-5-5.8c-2.3-0.4-4.2-0.2-6.1,1.1c-2.2,1.4-3.3,5.4-3.6,8.5l-0.6,7.4c-0.2,5,3.3,8,7.6,8.7c3.6,0.7,6.4-1.2,6.5-4.3
		L140.2,73.7z"/>
	<path class="st1" d="M156.2,132.5l0.2-0.6c1.4-2.8,2.2-5.8,2.6-8.8l9.9-70.5c1.2-9.3,9.2-16.2,18.7-16.2h20.8
		c12.4,0,22.1,10.9,20.4,23.3c-1.1,7.7-5,15-10.9,20.1l-2.5,2.1c5.6,6.4,8.1,15,6.9,23.3l-1.4,9.7c-0.6,4.3-4.3,7.5-8.6,7.5h-19.9
		c1.8-2.9,2.9-6.1,3.4-9.5l0.6-4.2c0.9-6.1-1-12.3-5-17.1c-0.9-1-2.6-0.5-2.8,0.9l-4.3,31.2c-0.7,5-5,8.7-10.2,8.7H156.2z
		 M202.3,67.4c0.5-3.1-1.8-5.8-4.9-5.8h-1.8c-1.5,0-2.7,1-2.8,2.5l-0.6,4.4c-0.2,1.7,1.1,3.2,2.8,3.2h2.5
		C199.8,71.7,202.1,69.9,202.3,67.4z"/>
	<path class="st1" d="M292.1,37.9c5.2,2.2,8.2,7.6,7.4,13.8c-2.6,18.9-9.3,66.4-10.1,72.1c-0.9,5.9-6.3,9.1-12.2,9.5
		c-1.6,0-8.2-0.1-10.1-0.1c-1.5,0-6.6-0.1-6.5-0.1c1.5-0.9,2.6-5.3,3.1-8.5c1.2-6.8,0.6-10.8-0.6-19.7c-0.4-2.7-1.2-8.2-2.2-14.6
		c-0.2-1.6-2.5-1.5-2.6,0l-0.5,3.4c-1.7,8.7-1.8,11.9-3.2,20.4c-0.7,4.2-5.2,9.1-9.5,9.1c-0.5,0-6.8-0.1-12-0.1c-4.3,0-6.3,0-6.5,0
		c1-1.1,1.7-3.3,2-5.2c0.7-4.5,1.5-9.9,2.2-14.9c2.8-21,6.9-44,9.7-65c1.2-8.8,6.8-13.9,14-13.1c5.9,0.6,9.9,4.4,11.2,9.9
		c0.4,2,2.5,19.8,3.8,31.8c0.1,1.6,2.5,1.6,2.6,0c1.2-6.5,1.8-12.9,2.7-19.7C275.8,40.1,284,34.4,292.1,37.9z"/>
	<path class="st1" d="M376.2,37.1c6.8,0.2,11.3,5.2,11.3,11.5c0,6.3-5.6,10.3-8.8,10.6c-5.5,0.2-9.8,4.5-10.2,9.3
		c-2.1,16.3-6.4,39.2-8.5,55.5c-0.7,8.5-5.6,9-9.7,9.1c-6,0.1-17.1,0-17.1,0c1.1-0.6,1.7-3.6,2-5.4c2.3-14.7,5.9-41.3,8.1-55.9
		c1.5-8-0.5-10.3-5.9-11.9c-0.9-0.2-2.6-0.5-4.4-1c-3.1-1.4-1.4-6.3-0.9-9.9c0.6-6.1,3.9-11.5,10.3-11.9
		C348.3,36.6,371.2,36.8,376.2,37.1z"/>
	<path class="st1" d="M413.5,36.7h4.8c20.1,0,35.6,17.8,32.8,37.8l-4.3,30.6c-0.7,4.9-3.1,9.3-6.8,12.5c-3.8,3.3-8.6,5.2-13.6,5.2
		h-4.8c-20.1,0-35.6-17.8-32.8-37.7l4.3-30.7c0.7-4.9,3.2-9.3,6.9-12.7C403.7,38.5,408.6,36.7,413.5,36.7z M427.6,73.7
		c0.1-2.5-2.2-5.3-5-5.8c-2.3-0.4-4.2-0.2-6.1,1.1c-2.2,1.4-3.3,5.4-3.6,8.5l-0.6,7.4c-0.2,5,3.3,8,7.6,8.7c3.6,0.7,6.4-1.2,6.5-4.3
		L427.6,73.7z"/>
	<path class="st1" d="M505.3,75.9c-0.7,4.4-1.5,9.5-2.1,14.5c-1.5,5.9,1.4,9.7,5.4,10.3c1.6,0.2,3.2-0.1,4.5-1
		c1.4-0.9,2.3-2.2,2.8-3.7c0.5-1.4,0.5-2.8,0-4.2c-0.4-1.5-1.2-2.6-2.3-3.6c-2-1.6-4.3-3.2-3.8-7.6c0.6-5.2,6.8-7.1,10.9-7
		c12.2,0.2,19.5,4.9,17.3,19.8c-1.4,11.5-2.7,17.4-4.2,29c-1,6.5-7.4,10.2-13.1,10.2c-6.3,0-5.6,0-10.9,0c-0.7,0-2.7,0-2.7,0
		c0.5-1.4,0.7-2.7,0.9-4.1c0.1-0.7,0-1.5-0.1-2.1c-0.2-0.7-0.6-1.4-1.1-1.8c-0.5-0.5-1-1-1.6-1.2c-0.7-0.4-1.4-0.5-2.1-0.5
		c-7.5,0-18.9,0-26.7,0c-1,0-4.3,0-4.2,0c1-0.7,1.4-3.9,1.5-5.2c3.2-21.4,5.6-37.5,9-58.8c1.5-11.7,11.9-22.6,28.2-21.9
		c9.6-0.2,11.2-0.2,20.6-0.2c7.5,0.1,12.3,5.9,12.5,12.7c0.1,4.4-3.8,12.7-12.2,12.8c-2.2,0.1-6.9,0-8.7-0.1
		C512.9,61.3,506.6,65.8,505.3,75.9z"/>
	<path class="st1" d="M608.8,58.7c1.1,4.4,1.4,9,0.6,13.5l-5,36.2l-2,14.4l-26.4-0.1c0.6-0.9,1.1-2,1.4-3.2c0.5-2.2,1.4-7.5,1.4-7.5
		l1.5-10.2c0.2-2.5-1.4-4.2-3.8-4.3c-2.7-0.1-5.5,0.9-6.5,5.6l-1,7l-1.7,12.7c0,0-27.3,0.1-27.1,0.1c2-2,3.9-14.5,3.9-14.5l5.9-41.4
		c2.2-16,18.5-30.1,34.5-30.1c6.4,0,13.3,2.7,18.5,9.6C605.8,50.2,607.7,54.3,608.8,58.7z M585.1,66.1c0.1-0.5,0.1-1-0.1-1.5
		c-0.1-0.5-0.4-0.9-0.6-1.2c-0.4-0.4-0.7-0.7-1.2-0.9c-0.4-0.2-0.9-0.4-1.4-0.4c-1.7,0-3.4,0.6-4.7,1.7c-2,1.6-2.8,4.9-3.2,7.5
		l-0.9,5.9c-0.2,1.4,0.1,2.8,1,3.9s2.1,1.8,3.4,2c1.4,0.2,2.8-0.1,3.9-1c1-0.9,1.7-2.1,2-3.4L585.1,66.1z"/>
	<path class="st1" d="M679.8,36.9c8.1,0,14.2,7.1,13.1,15.1l-8.4,59.8c-1,6.4-6.4,11.2-12.9,11.2h-15.2c0,0,1.4-1.5,1.8-4.4
		c0.1-1.5,4.8-33.7,6-43c0.1-0.9-0.9-1.4-1.5-0.7l-6.4,5.5c-1.8,1.6-4.7,1.4-6.3-0.5l-4.4-5.2c-0.5-0.6-1.5-0.4-1.6,0.5l-6.6,46.7
		c-0.9,6.4-6.4,11.2-12.8,11.2h-16c1.6-2.5,2.7-5.4,3.1-8.4l10.3-73.8c1.2-8.1,8.1-14,16.2-14c3.8,0,7.5,1.6,10.1,4.5l8.5,9.8
		c0.2,0.5,1,0.5,1.4,0.1l12.8-11.3C673.6,38.1,676.6,36.9,679.8,36.9z"/>
	<path class="st1" d="M741.6,36.6c9.1,0,15,6.1,14.5,13.3c-0.1,3.1-1.5,6-3.7,8.2c-2.2,2.2-5.3,3.3-8.4,3.3c-5.2,0-8.5-0.1-13.4-0.1
		c-3.4,0-6.1,1.5-6.3,4.8c-0.2,3.7,2.3,5.5,5.8,5.8c0.9,0.1,2.8,0.2,4.7,0.2c3.6,0,7.9,2.5,7.7,7.6c0,4.9-4.5,7.7-9.2,7.5
		c-2.7-0.1-5-0.9-7.6-0.7c-2.7,0-4.4,2.3-4.8,5c-0.1,0.6,0,1.2,0.1,1.8c0.1,0.7,0.4,1.2,0.9,1.8c0.4,0.5,0.9,0.9,1.5,1.2
		c0.5,0.2,1.1,0.5,1.8,0.5c2.7,0.4,5.5,0.5,8.4,0.4c10.3-0.1,14.4,6.4,14.2,13.5c-0.1,3.3-1.6,6.3-3.8,8.5c-2.3,2.2-5.4,3.4-8.6,3.4
		c-6.5,0.1-10.1,0-16.6,0h-23.2c-1.5,0-4.9,0-4.9,0c0.6-1.2,1.5-7.4,1.7-8.8c3.1-20,4.5-36.4,8.1-56.3c1.8-10.6,11.9-19.9,23.3-20.8
		C730.7,36.3,734.8,36.6,741.6,36.6z"/>
	<path class="st1" d="M85,79.7l2.7,3.1c3.8,4.5,5.5,10.3,4.7,16.2l-0.9,5.6c-0.6,4.9-3.1,9.3-6.8,12.5c-3.7,3.3-8.5,5.2-13.5,5.2
		H27.1c1.4-2.9,2.2-6,2.7-9.2l8.1-57.2c1.6-11.3,11.2-19.5,22.5-19.5h17.9c3.9,0,7.9,1.2,11.2,3.6c2.2,1.6,4.1,3.7,5.5,6.1l0.6,1.2
		C104.9,67.6,85,79.7,85,79.7z M68.1,92.6c0.4-3.1-2-5.8-5-5.8H61c-1.2,0-2.3,1-2.6,2.3l-0.7,5.2c-0.1,1.4,1,2.7,2.5,2.7h2.9
		C65.5,97,67.7,95.2,68.1,92.6z M71.5,67.4c0.5-3.1-1.8-5.9-4.9-5.9H65c-1.6,0-2.9,1.2-3.1,2.7l-0.7,5c-0.2,1.2,0.7,2.5,2.1,2.5h3.3
		C69.1,71.7,71.2,69.9,71.5,67.4z"/>
</g>
</svg>
